<svg xmlns="http://www.w3.org/2000/svg" width="512" height="512" viewBox="0 0 512 512">
  <rect width="512" height="512" fill="#000000" rx="64"/>
  <path d="M256 64c-8 0-16 8-16 16v48c0 8 8 16 16 16s16-8 16-16V80c0-8-8-16-16-16z" fill="#a3e635"/>
  <circle cx="256" cy="64" r="16" fill="#a3e635"/>
  <rect x="176" y="128" width="160" height="128" rx="32" fill="none" stroke="#a3e635" stroke-width="16"/>
  <circle cx="224" cy="192" r="24" fill="#a3e635"/>
  <circle cx="288" cy="192" r="24" fill="#a3e635"/>
  <path d="M192 128l-16-32M320 128l16-32" stroke="#a3e635" stroke-width="12" stroke-linecap="round"/>
  <rect x="192" y="256" width="128" height="112" rx="16" fill="none" stroke="#a3e635" stroke-width="16"/>
  <path d="M192 288l-48 32M320 288l48 32" stroke="#a3e635" stroke-width="16" stroke-linecap="round"/>
  <path d="M224 368v64M288 368v64" stroke="#a3e635" stroke-width="16" stroke-linecap="round"/>
</svg>
